<svg width="156" height="30" viewBox="0 0 156 30" fill="none" xmlns="http://www.w3.org/2000/svg">
<path fill-rule="evenodd" clip-rule="evenodd" d="M13.4766 9.55616L14.1354 8.98509L15.2498 8.0192V1.53701C15.2498 0.688275 14.4558 6.10352e-05 13.4766 6.10352e-05C12.4973 6.10352e-05 11.7033 0.688275 11.7033 1.53701V8.0192L12.8177 8.98509L13.4766 9.55616ZM13.4766 17.5196L12.8177 18.0906L11.7033 19.0565V25.5387C11.7033 26.3874 12.4973 27.0757 13.4766 27.0757C14.4558 27.0757 15.2498 26.3874 15.2498 25.5387V19.0565L14.1354 18.0906L13.4766 17.5196ZM19.0951 11.6797H25.5904C26.4408 11.6797 27.1304 12.4721 27.1304 13.4494C27.1304 14.4266 26.4408 15.219 25.5904 15.219H19.0951L18.1269 14.1069L17.555 13.4494L18.1269 12.7919L19.0951 11.6797ZM9.57545 13.4494L9.00323 12.7919L8.03538 11.6797H1.54007C0.689607 11.6797 0 12.4721 0 13.4494C0 14.4266 0.689607 15.219 1.54007 15.219H8.03538L9.00323 14.1069L9.57545 13.4494ZM10.5755 14.3342L12.7673 16.5215L12.1914 17.0962L6.19203 23.0834C5.88931 23.3855 5.49291 23.5364 5.09616 23.5364C4.89779 23.5364 4.69976 23.4986 4.5131 23.4229C4.32644 23.3477 4.15183 23.2343 4.00029 23.0834C3.39519 22.4795 3.39519 21.5 4.00029 20.8961L9.99969 14.9089L10.5755 14.3342ZM14.3632 10.5542L16.5549 12.7415L17.1307 12.1669L23.1301 6.17964C23.7352 5.57576 23.7352 4.59657 23.1301 3.99235C22.9786 3.84147 22.804 3.72805 22.6173 3.65278C22.431 3.57716 22.2326 3.53936 22.0343 3.53936C21.6375 3.53936 21.2411 3.69024 20.9384 3.99235L14.939 9.97956L14.3632 10.5542ZM13.2106 11.0344L15.3644 13.1839L16.8874 14.7039L22.7831 20.5877C23.3781 21.1815 23.3781 22.1438 22.7831 22.7373C22.4859 23.0342 22.096 23.1824 21.7062 23.1824C21.3166 23.1824 20.9267 23.0342 20.6292 22.7373L14.7336 16.8534L13.2106 15.3335L11.0567 13.1839L9.53373 11.664L3.63805 5.78013C3.04307 5.18634 3.04307 4.22405 3.63805 3.6306C3.71217 3.55629 3.79238 3.49144 3.87699 3.43571C4.04588 3.32458 4.23202 3.25028 4.42392 3.21312C4.52003 3.19455 4.61751 3.18543 4.71498 3.18543C5.10453 3.18543 5.49441 3.3337 5.7919 3.6306L11.6876 9.51446L13.2106 11.0344ZM34.882 1.9574H39.1042L52.0772 17.5783V1.9574H56.2994V22.9189H52.0772V22.7031L39.1042 6.50376V22.9189H34.882V1.9574ZM58.7146 17.93C58.7146 17.17 58.8789 16.4771 59.2074 15.8513C59.536 15.2254 60.0288 14.6868 60.6859 14.2353C61.3429 13.7837 62.1621 13.4351 63.1433 13.1892C64.1245 12.9433 65.2677 12.8204 66.573 12.8204C67.5409 12.8204 68.5598 12.8919 69.6298 13.035C70.6998 13.178 71.803 13.3971 72.9396 13.6921C72.8952 13.1914 72.7443 12.7287 72.4868 12.3041C72.2293 11.8794 71.8719 11.5128 71.4146 11.2043C70.9573 10.8959 70.4067 10.6567 69.763 10.4869C69.1192 10.317 68.3889 10.232 67.5719 10.232C67.128 10.232 66.6396 10.2589 66.1068 10.3125C65.574 10.3662 65.0235 10.4466 64.4552 10.5539C63.8869 10.6612 63.3253 10.7953 62.7703 10.9562C62.2154 11.1172 61.6981 11.3094 61.2186 11.5329L60.0199 8.27402C60.6148 8.05944 61.2519 7.86275 61.9312 7.68393C62.6105 7.50512 63.3053 7.35089 64.0157 7.22125C64.726 7.09161 65.4364 6.99103 66.1468 6.9195C66.8571 6.84797 67.5453 6.81221 68.2113 6.81221C71.1504 6.81221 73.3348 7.5677 74.7644 9.07869C76.194 10.5897 76.9088 12.9053 76.9088 16.0256V22.9189H72.9663V21.4303C72.5578 21.6717 72.1116 21.8997 71.6277 22.1143C71.1437 22.3288 70.6176 22.5166 70.0493 22.6775C69.481 22.8385 68.8706 22.9659 68.2179 23.0597C67.5653 23.1536 66.8749 23.2006 66.1468 23.2006C64.9214 23.2006 63.8448 23.0665 62.9168 22.7982C61.9889 22.53 61.2142 22.159 60.5926 21.6851C59.9711 21.2113 59.5027 20.6547 59.1874 20.0154C58.8722 19.3762 58.7146 18.681 58.7146 17.93ZM62.8702 17.7959C62.8702 18.0552 62.9368 18.3033 63.07 18.5402C63.2032 18.7771 63.4163 18.9872 63.7093 19.1705C64.0024 19.3538 64.3775 19.5013 64.8348 19.6131C65.2921 19.7249 65.8449 19.7807 66.4931 19.7807C67.1857 19.7807 67.8561 19.7182 68.5043 19.593C69.1525 19.4678 69.7563 19.3024 70.3157 19.0968C70.8751 18.8911 71.3813 18.6542 71.8341 18.386C72.287 18.1178 72.6644 17.8406 72.9663 17.5545V16.8571C72.3624 16.6872 71.7653 16.5442 71.1748 16.428C70.5843 16.3117 70.0205 16.2201 69.4833 16.153C68.946 16.086 68.4399 16.039 67.9649 16.0122C67.4898 15.9854 67.0747 15.972 66.7195 15.972C65.9825 15.972 65.3698 16.0212 64.8814 16.1195C64.3931 16.2179 63.9979 16.3497 63.696 16.5151C63.3941 16.6805 63.181 16.875 63.0567 17.0985C62.9324 17.322 62.8702 17.5545 62.8702 17.7959ZM81.0036 24.9038C81.4121 25.172 81.8561 25.4089 82.3356 25.6146C82.8151 25.8202 83.3145 25.9901 83.834 26.1242C84.3534 26.2583 84.884 26.3589 85.4257 26.4259C85.9673 26.493 86.5045 26.5265 87.0373 26.5265C88.8487 26.5265 90.245 26.1354 91.2262 25.353C92.2074 24.5707 92.698 23.3973 92.698 21.8326V21.2962C92.3517 21.5376 91.9632 21.7589 91.5326 21.96C91.1019 22.1612 90.6402 22.3333 90.1473 22.4764C89.6545 22.6194 89.1351 22.7289 88.589 22.8049C88.0429 22.8809 87.4901 22.9189 86.9307 22.9189C85.732 22.9189 84.6598 22.7423 83.7141 22.3892C82.7684 22.036 81.9693 21.5175 81.3166 20.8335C80.664 20.1495 80.1645 19.3069 79.8182 18.3055C79.4719 17.3042 79.2988 16.1597 79.2988 14.8723V7.09384H83.228V13.7726C83.228 15.6859 83.5898 17.0963 84.3135 18.0038C85.0372 18.9112 86.1804 19.365 87.7432 19.365C88.8443 19.365 89.8188 19.1705 90.6668 18.7816C91.5148 18.3927 92.1919 17.8942 92.698 17.2863V7.09384H96.6405V21.1084C96.6405 22.6194 96.4274 23.9315 96.0012 25.0446C95.575 26.1577 94.9556 27.0808 94.1431 27.814C93.3307 28.5471 92.3339 29.0947 91.153 29.4568C89.972 29.8189 88.6312 30 87.1305 30C85.6654 30 84.298 29.8435 83.0282 29.5306C81.7584 29.2177 80.5952 28.793 79.5385 28.2565L81.0036 24.9038ZM99.7868 10.393H107.845L98.2151 22.9189H114.624V19.6198H105.461L115.157 7.09384H99.7868V10.393ZM117.463 15.8513C117.134 16.4771 116.97 17.17 116.97 17.93C116.97 18.681 117.128 19.3762 117.443 20.0154C117.758 20.6547 118.227 21.2113 118.848 21.6851C119.47 22.159 120.244 22.53 121.172 22.7982C122.1 23.0665 123.177 23.2006 124.402 23.2006C125.13 23.2006 125.821 23.1536 126.473 23.0597C127.126 22.9659 127.737 22.8385 128.305 22.6775C128.873 22.5166 129.399 22.3288 129.883 22.1143C130.367 21.8997 130.813 21.6717 131.222 21.4303V22.9189H135.164V16.0256C135.164 12.9053 134.449 10.5897 133.02 9.07869C131.59 7.5677 129.406 6.81221 126.467 6.81221C125.801 6.81221 125.113 6.84797 124.402 6.9195C123.692 6.99103 122.982 7.09161 122.271 7.22125C121.561 7.35089 120.866 7.50512 120.187 7.68393C119.507 7.86275 118.87 8.05944 118.275 8.27402L119.474 11.5329C119.954 11.3094 120.471 11.1172 121.026 10.9562C121.581 10.7953 122.142 10.6612 122.711 10.5539C123.279 10.4466 123.83 10.3662 124.362 10.3125C124.895 10.2589 125.383 10.232 125.827 10.232C126.644 10.232 127.375 10.317 128.018 10.4869C128.662 10.6567 129.213 10.8959 129.67 11.2043C130.127 11.5128 130.485 11.8794 130.742 12.3041C131 12.7287 131.151 13.1914 131.195 13.6921C130.059 13.3971 128.955 13.178 127.885 13.035C126.815 12.8919 125.796 12.8204 124.828 12.8204C123.523 12.8204 122.38 12.9433 121.399 13.1892C120.418 13.4351 119.598 13.7837 118.941 14.2353C118.284 14.6868 117.791 15.2254 117.463 15.8513ZM121.325 18.5402C121.192 18.3033 121.126 18.0552 121.126 17.7959C121.126 17.5545 121.188 17.322 121.312 17.0985C121.436 16.875 121.65 16.6805 121.951 16.5151C122.253 16.3497 122.649 16.2179 123.137 16.1195C123.625 16.0212 124.238 15.972 124.975 15.972C125.33 15.972 125.745 15.9854 126.22 16.0122C126.695 16.039 127.202 16.086 127.739 16.153C128.276 16.2201 128.84 16.3117 129.43 16.428C130.021 16.5442 130.618 16.6872 131.222 16.8571V17.5545C130.92 17.8406 130.542 18.1178 130.09 18.386C129.637 18.6542 129.131 18.8911 128.571 19.0968C128.012 19.3024 127.408 19.4678 126.76 19.593C126.112 19.7182 125.441 19.7807 124.749 19.7807C124.1 19.7807 123.548 19.7249 123.09 19.6131C122.633 19.5013 122.258 19.3538 121.965 19.1705C121.672 18.9872 121.459 18.7771 121.325 18.5402ZM142.095 1.9574H138.152V22.9189H142.095V19.1504L144.239 17.2192L150.086 22.9189H156L147.263 14.4968L155.481 7.09385H149.447L142.095 13.8128V1.9574Z" fill="#262626"/>
</svg>
