<svg width="32" height="32" viewBox="0 0 32 32" fill="none" xmlns="http://www.w3.org/2000/svg">
<path fill-rule="evenodd" clip-rule="evenodd" d="M15.8954 11.2941L16.6725 10.6192L17.9869 9.47763V1.81649C17.9869 0.813383 17.0504 0 15.8954 0C14.7404 0 13.8039 0.813383 13.8039 1.81649V9.47763L15.1183 10.6192L15.8954 11.2941ZM15.8954 20.7059L15.1183 21.3808L13.8039 22.5224V30.1835C13.8039 31.1866 14.7404 32 15.8954 32C17.0504 32 17.9869 31.1866 17.9869 30.1835V22.5224L16.6725 21.3808L15.8954 20.7059ZM21.3804 15.1183L22.5224 13.8039H30.1835C31.1866 13.8039 32 14.7404 32 15.8954C32 17.0504 31.1866 17.9869 30.1835 17.9869H22.5224L21.3804 16.6725L20.7059 15.8954L21.3804 15.1183ZM11.2941 15.8954L10.6192 15.1183L9.47763 13.8039H1.81649C0.813383 13.8039 0 14.7404 0 15.8954C0 17.0504 0.813383 17.9869 1.81649 17.9869H9.47763L10.6192 16.6725L11.2941 15.8954ZM12.4737 16.9412L15.0588 19.5263L14.3796 20.2055L7.30343 27.2816C6.94637 27.6387 6.47882 27.817 6.01086 27.817C5.77688 27.817 5.54331 27.7723 5.32314 27.6829C5.10298 27.594 4.89703 27.4599 4.71829 27.2816C4.00458 26.5679 4.00458 25.4102 4.71829 24.6965L11.7945 17.6204L12.4737 16.9412ZM16.9412 12.4737L19.5263 15.0588L20.2055 14.3796L27.2817 7.3035C27.9954 6.58979 27.9954 5.4325 27.2817 4.71839C27.103 4.54006 26.897 4.40601 26.6769 4.31706C26.4571 4.22769 26.2231 4.18301 25.9891 4.18301C25.5212 4.18301 25.0536 4.36133 24.6966 4.71839L17.6204 11.7945L16.9412 12.4737ZM15.5817 13.0412L18.1221 15.5817L19.9185 17.3781L26.8724 24.3321C27.5741 25.0339 27.5741 26.1712 26.8724 26.8726C26.5219 27.2234 26.062 27.3987 25.6021 27.3987C25.1427 27.3987 24.6828 27.2234 24.3319 26.8726L17.378 19.9186L15.5817 18.1222L13.0413 15.5817L11.2449 13.7853L4.29104 6.83133C3.58926 6.12954 3.58926 4.99223 4.29104 4.29085C4.37846 4.20302 4.47307 4.12638 4.57286 4.06051C4.77206 3.92917 4.99161 3.84135 5.21795 3.79744C5.33132 3.77548 5.44629 3.76471 5.56126 3.76471C6.02072 3.76471 6.48059 3.93995 6.83148 4.29085L13.7853 11.2448L15.5817 13.0412Z" fill="#D4D4D4"/>
</svg>
