<svg width="28" height="28" viewBox="0 0 28 28" fill="none" xmlns="http://www.w3.org/2000/svg">
<path fill-rule="evenodd" clip-rule="evenodd" d="M25.6668 4.67786C24.5002 5.24953 23.3568 5.48169 22.1668 5.83286C20.859 4.35703 18.92 4.27536 17.0568 4.97303C15.1937 5.67069 13.9733 7.37636 14.0002 9.33286V10.4995C10.2143 10.5964 6.84266 8.87203 4.66683 5.83286C4.66683 5.83286 -0.212171 14.5047 9.3335 18.6662C7.1495 20.121 4.97133 21.1022 2.3335 20.9995C6.19283 23.103 10.3987 23.8264 14.0398 22.7694C18.2165 21.556 21.6488 18.4259 22.966 13.737C23.3589 12.311 23.554 10.8377 23.5458 9.35853C23.5435 9.06803 25.3075 6.12453 25.6668 4.67669V4.67786Z" stroke="#D4D4D4" stroke-width="1.5" stroke-linecap="round" stroke-linejoin="round"/>
</svg>
