<svg width="141" height="32" viewBox="0 0 141 32" fill="none" xmlns="http://www.w3.org/2000/svg">
<path fill-rule="evenodd" clip-rule="evenodd" d="M13.2971 0.687536C14.9824 -0.229179 17.0175 -0.229179 18.7028 0.687536L28.473 6.00205C30.2935 6.99226 31.4267 8.89867 31.4267 10.971V21.029C31.4267 23.1013 30.2935 25.0077 28.473 25.998L18.7028 31.3125C17.0175 32.2292 14.9824 32.2292 13.2971 31.3125L3.52687 25.998C1.70645 25.0077 0.573242 23.1013 0.573242 21.029L0.573242 10.971C0.573242 8.89867 1.70645 6.99226 3.52686 6.00205L13.2971 0.687536Z" fill="#3772FF"/>
<g filter="url(#filter0_d_8_7097)">
<path fill-rule="evenodd" clip-rule="evenodd" d="M18.8612 21.6668C22.5431 21.6668 25.5278 18.6821 25.5278 15.0002C25.5278 11.3183 22.5431 8.3335 18.8612 8.3335C16.0446 8.3335 13.636 10.0801 12.6594 12.5494C12.1871 12.3891 11.6809 12.3022 11.1544 12.3022C8.56848 12.3022 6.47217 14.3986 6.47217 16.9845C6.47217 19.5704 8.56848 21.6667 11.1544 21.6667H11.1547L11.1544 21.6669H17.9896C18.0908 21.6669 18.1911 21.6587 18.2896 21.6427C18.478 21.6587 18.6686 21.6668 18.8612 21.6668ZM14.63 20.1523C14.6248 20.148 14.6195 20.1436 14.6143 20.1393C14.6041 20.1504 14.5939 20.1615 14.5837 20.1725L14.63 20.1523Z" fill="url(#paint0_linear_8_7097)"/>
</g>
<path d="M13.536 1.12676C15.0724 0.291079 16.9275 0.291079 18.4639 1.12676L28.2341 6.44127C29.8936 7.34396 30.9267 9.08185 30.9267 10.971V21.029C30.9267 22.9182 29.8936 24.656 28.2341 25.5587L18.4639 30.8732C16.9275 31.7089 15.0724 31.7089 13.536 30.8732L3.76578 25.5587C2.10628 24.656 1.07324 22.9182 1.07324 21.029V10.971C1.07324 9.08185 2.10628 7.34396 3.76578 6.44127L13.536 1.12676Z" stroke="url(#paint1_linear_8_7097)"/>
<path d="M51.16 15.408C52.104 15.584 52.88 16.056 53.488 16.824C54.096 17.592 54.4 18.472 54.4 19.464C54.4 20.36 54.176 21.152 53.728 21.84C53.296 22.512 52.664 23.04 51.832 23.424C51 23.808 50.016 24 48.88 24H41.656V7.248H48.568C49.704 7.248 50.68 7.432 51.496 7.8C52.328 8.168 52.952 8.68 53.368 9.336C53.8 9.992 54.016 10.736 54.016 11.568C54.016 12.544 53.752 13.36 53.224 14.016C52.712 14.672 52.024 15.136 51.16 15.408ZM45.016 14.16H48.088C48.888 14.16 49.504 13.984 49.936 13.632C50.368 13.264 50.584 12.744 50.584 12.072C50.584 11.4 50.368 10.88 49.936 10.512C49.504 10.144 48.888 9.96 48.088 9.96H45.016V14.16ZM48.4 21.264C49.216 21.264 49.848 21.072 50.296 20.688C50.76 20.304 50.992 19.76 50.992 19.056C50.992 18.336 50.752 17.776 50.272 17.376C49.792 16.96 49.144 16.752 48.328 16.752H45.016V21.264H48.4ZM58.3019 9.12C57.7099 9.12 57.2139 8.936 56.8139 8.568C56.4299 8.184 56.2379 7.712 56.2379 7.152C56.2379 6.592 56.4299 6.128 56.8139 5.76C57.2139 5.376 57.7099 5.184 58.3019 5.184C58.8939 5.184 59.3819 5.376 59.7659 5.76C60.1659 6.128 60.3659 6.592 60.3659 7.152C60.3659 7.712 60.1659 8.184 59.7659 8.568C59.3819 8.936 58.8939 9.12 58.3019 9.12ZM59.9579 10.704V24H56.5979V10.704H59.9579ZM66.7096 13.464V19.896C66.7096 20.344 66.8136 20.672 67.0216 20.88C67.2456 21.072 67.6136 21.168 68.1256 21.168H69.6856V24H67.5736C64.7416 24 63.3256 22.624 63.3256 19.872V13.464H61.7416V10.704H63.3256V7.416H66.7096V10.704H69.6856V13.464H66.7096ZM70.8062 15.6C70.8062 13.952 71.1742 12.48 71.9102 11.184C72.6622 9.872 73.6782 8.856 74.9582 8.136C76.2542 7.4 77.7022 7.032 79.3023 7.032C81.1743 7.032 82.8143 7.512 84.2223 8.472C85.6303 9.432 86.6143 10.76 87.1742 12.456H83.3103C82.9262 11.656 82.3822 11.056 81.6783 10.656C80.9903 10.256 80.1902 10.056 79.2782 10.056C78.3022 10.056 77.4302 10.288 76.6622 10.752C75.9102 11.2 75.3182 11.84 74.8862 12.672C74.4702 13.504 74.2622 14.48 74.2622 15.6C74.2622 16.704 74.4702 17.68 74.8862 18.528C75.3182 19.36 75.9102 20.008 76.6622 20.472C77.4302 20.92 78.3022 21.144 79.2782 21.144C80.1902 21.144 80.9903 20.944 81.6783 20.544C82.3822 20.128 82.9262 19.52 83.3103 18.72H87.1742C86.6143 20.432 85.6303 21.768 84.2223 22.728C82.8303 23.672 81.1903 24.144 79.3023 24.144C77.7022 24.144 76.2542 23.784 74.9582 23.064C73.6782 22.328 72.6622 21.312 71.9102 20.016C71.1742 18.72 70.8062 17.248 70.8062 15.6ZM92.9241 6.24V24H89.5641V6.24H92.9241ZM101.668 24.216C100.388 24.216 99.2358 23.936 98.2118 23.376C97.1878 22.8 96.3798 21.992 95.7878 20.952C95.2118 19.912 94.9238 18.712 94.9238 17.352C94.9238 15.992 95.2198 14.792 95.8118 13.752C96.4198 12.712 97.2438 11.912 98.2838 11.352C99.3238 10.776 100.484 10.488 101.764 10.488C103.044 10.488 104.204 10.776 105.244 11.352C106.284 11.912 107.1 12.712 107.692 13.752C108.3 14.792 108.604 15.992 108.604 17.352C108.604 18.712 108.292 19.912 107.668 20.952C107.06 21.992 106.228 22.8 105.172 23.376C104.132 23.936 102.964 24.216 101.668 24.216ZM101.668 21.288C102.276 21.288 102.844 21.144 103.372 20.856C103.916 20.552 104.348 20.104 104.668 19.512C104.988 18.92 105.148 18.2 105.148 17.352C105.148 16.088 104.812 15.12 104.14 14.448C103.484 13.76 102.676 13.416 101.716 13.416C100.756 13.416 99.9478 13.76 99.2918 14.448C98.6518 15.12 98.3318 16.088 98.3318 17.352C98.3318 18.616 98.6438 19.592 99.2678 20.28C99.9078 20.952 100.708 21.288 101.668 21.288ZM123.141 10.704V24H119.757V22.32C119.325 22.896 118.757 23.352 118.053 23.688C117.365 24.008 116.613 24.168 115.797 24.168C114.757 24.168 113.837 23.952 113.037 23.52C112.237 23.072 111.605 22.424 111.141 21.576C110.693 20.712 110.469 19.688 110.469 18.504V10.704H113.829V18.024C113.829 19.08 114.093 19.896 114.621 20.472C115.149 21.032 115.869 21.312 116.781 21.312C117.709 21.312 118.437 21.032 118.965 20.472C119.493 19.896 119.757 19.08 119.757 18.024V10.704H123.141ZM125.112 17.304C125.112 15.96 125.376 14.768 125.904 13.728C126.448 12.688 127.184 11.888 128.112 11.328C129.04 10.768 130.072 10.488 131.208 10.488C132.072 10.488 132.896 10.68 133.68 11.064C134.464 11.432 135.088 11.928 135.552 12.552V6.24H138.96V24H135.552V22.032C135.136 22.688 134.552 23.216 133.8 23.616C133.048 24.016 132.176 24.216 131.184 24.216C130.064 24.216 129.04 23.928 128.112 23.352C127.184 22.776 126.448 21.968 125.904 20.928C125.376 19.872 125.112 18.664 125.112 17.304ZM135.576 17.352C135.576 16.536 135.416 15.84 135.096 15.264C134.776 14.672 134.344 14.224 133.8 13.92C133.256 13.6 132.672 13.44 132.048 13.44C131.424 13.44 130.848 13.592 130.32 13.896C129.792 14.2 129.36 14.648 129.024 15.24C128.704 15.816 128.544 16.504 128.544 17.304C128.544 18.104 128.704 18.808 129.024 19.416C129.36 20.008 129.792 20.464 130.32 20.784C130.864 21.104 131.44 21.264 132.048 21.264C132.672 21.264 133.256 21.112 133.8 20.808C134.344 20.488 134.776 20.04 135.096 19.464C135.416 18.872 135.576 18.168 135.576 17.352Z" fill="#F4F5F6"/>
<defs>
<filter id="filter0_d_8_7097" x="2.47217" y="6.3335" width="27.0557" height="21.3334" filterUnits="userSpaceOnUse" color-interpolation-filters="sRGB">
<feFlood flood-opacity="0" result="BackgroundImageFix"/>
<feColorMatrix in="SourceAlpha" type="matrix" values="0 0 0 0 0 0 0 0 0 0 0 0 0 0 0 0 0 0 127 0" result="hardAlpha"/>
<feOffset dy="2"/>
<feGaussianBlur stdDeviation="2"/>
<feColorMatrix type="matrix" values="0 0 0 0 0 0 0 0 0 0 0 0 0 0 0 0 0 0 0.15 0"/>
<feBlend mode="normal" in2="BackgroundImageFix" result="effect1_dropShadow_8_7097"/>
<feBlend mode="normal" in="SourceGraphic" in2="effect1_dropShadow_8_7097" result="shape"/>
</filter>
<linearGradient id="paint0_linear_8_7097" x1="21.6875" y1="9.125" x2="13.625" y2="21.6669" gradientUnits="userSpaceOnUse">
<stop stop-color="white"/>
<stop offset="1" stop-color="#FCFCFD" stop-opacity="0.75"/>
</linearGradient>
<linearGradient id="paint1_linear_8_7097" x1="16" y1="0" x2="16" y2="32" gradientUnits="userSpaceOnUse">
<stop stop-color="#7EA4FF" stop-opacity="0.27"/>
<stop offset="1" stop-color="#1448C4" stop-opacity="0.42"/>
</linearGradient>
</defs>
</svg>
